# Blender 4.0.0
# www.blender.org
mtllib tombstone.mtl
o Cube
v -0.817132 -1.000000 0.111825
v -0.817132 0.881185 0.111825
v -0.817132 -1.000000 -0.111825
v -0.817132 0.881185 -0.111825
v 0.817132 -1.000000 0.111825
v 0.817132 0.881185 0.111825
v 0.817132 -1.000000 -0.111825
v 0.817132 0.881185 -0.111825
v 0.000000 -1.000000 -0.111825
v 0.000000 1.274830 -0.111825
v 0.000000 -1.000000 0.111825
v 0.000000 1.274830 0.111825
v -0.408566 -1.000000 -0.111825
v -0.408566 1.216605 0.111825
v -0.408566 1.216605 -0.111825
v -0.408566 -1.000000 0.111825
v 0.408566 1.216605 -0.111825
v 0.408566 -1.000000 0.111825
v 0.408566 -1.000000 -0.111825
v 0.408566 1.216605 0.111825
v 0.612849 1.113405 -0.111825
v 0.612849 -1.000000 0.111825
v 0.612849 -1.000000 -0.111825
v 0.612849 1.113405 0.111825
v -0.612849 -1.000000 -0.111825
v -0.612849 1.113405 0.111825
v -0.612849 1.113405 -0.111825
v -0.612849 -1.000000 0.111825
v 0.714991 1.020922 -0.111825
v 0.714991 -1.000000 0.111825
v 0.714991 -1.000000 -0.111825
v 0.714991 1.020922 0.111825
v -0.714991 -1.000000 -0.111825
v -0.714991 1.020922 0.111825
v -0.714991 1.020922 -0.111825
v -0.714991 -1.000000 0.111825
v 0.204283 -1.000000 -0.111825
v 0.204283 1.260863 0.111825
v 0.204283 1.260863 -0.111825
v 0.204283 -1.000000 0.111825
v -0.204283 1.260863 -0.111825
v -0.204283 -1.000000 0.111825
v -0.204283 -1.000000 -0.111825
v -0.204283 1.260863 0.111825
vn -0.5774 -0.5774 0.5774
vn -0.7277 0.2376 0.6435
vn -0.7277 0.2376 -0.6435
vn -0.5774 -0.5774 -0.5774
vn -0.0000 -0.7071 -0.7071
vn 0.5414 0.4876 -0.6849
vn 0.7277 0.2376 -0.6435
vn 0.5774 -0.5774 -0.5774
vn 0.7277 0.2376 0.6435
vn 0.5774 -0.5774 0.5774
vn -0.0000 -0.7071 0.7071
vn -0.5414 0.4876 0.6849
vn -0.5414 0.4876 -0.6849
vn 0.1014 0.7156 -0.6912
vn -0.0000 0.7218 -0.6921
vn -0.0000 0.7218 0.6921
vn 0.1014 0.7156 0.6912
vn -0.1014 0.7156 -0.6912
vn -0.4160 0.6057 -0.6782
vn -0.2450 0.6914 -0.6796
vn -0.2450 0.6914 0.6796
vn -0.1014 0.7156 0.6912
vn 0.4160 0.6057 0.6782
vn 0.2450 0.6914 0.6796
vn 0.4160 0.6057 -0.6782
vn 0.2450 0.6914 -0.6796
vn 0.5414 0.4876 0.6849
vn -0.4160 0.6057 0.6782
vt 0.375000 0.000000
vt 0.625000 0.000000
vt 0.625000 0.250000
vt 0.375000 0.250000
vt 0.375000 0.484375
vt 0.625000 0.484375
vt 0.625000 0.500000
vt 0.375000 0.500000
vt 0.625000 0.750000
vt 0.375000 0.750000
vt 0.375000 0.984375
vt 0.625000 0.984375
vt 0.625000 1.000000
vt 0.375000 1.000000
vt 0.359375 0.500000
vt 0.359375 0.750000
vt 0.859375 0.500000
vt 0.875000 0.500000
vt 0.875000 0.750000
vt 0.859375 0.750000
vt 0.718750 0.500000
vt 0.750000 0.500000
vt 0.750000 0.750000
vt 0.718750 0.750000
vt 0.218750 0.500000
vt 0.250000 0.500000
vt 0.250000 0.750000
vt 0.218750 0.750000
vt 0.375000 0.843750
vt 0.625000 0.843750
vt 0.625000 0.875000
vt 0.375000 0.875000
vt 0.375000 0.343750
vt 0.625000 0.343750
vt 0.625000 0.375000
vt 0.375000 0.375000
vt 0.375000 0.281250
vt 0.625000 0.281250
vt 0.625000 0.312500
vt 0.375000 0.312500
vt 0.156250 0.500000
vt 0.187500 0.500000
vt 0.187500 0.750000
vt 0.156250 0.750000
vt 0.781250 0.500000
vt 0.812500 0.500000
vt 0.812500 0.750000
vt 0.781250 0.750000
vt 0.375000 0.906250
vt 0.625000 0.906250
vt 0.625000 0.937500
vt 0.375000 0.937500
vt 0.375000 0.781250
vt 0.625000 0.781250
vt 0.625000 0.812500
vt 0.375000 0.812500
vt 0.656250 0.500000
vt 0.687500 0.500000
vt 0.687500 0.750000
vt 0.656250 0.750000
vt 0.281250 0.500000
vt 0.312500 0.500000
vt 0.312500 0.750000
vt 0.281250 0.750000
vt 0.375000 0.406250
vt 0.625000 0.406250
vt 0.625000 0.437500
vt 0.375000 0.437500
vt 0.640625 0.500000
vt 0.640625 0.750000
vt 0.375000 0.765625
vt 0.625000 0.765625
vt 0.343750 0.500000
vt 0.343750 0.750000
vt 0.625000 0.468750
vt 0.375000 0.468750
vt 0.140625 0.500000
vt 0.140625 0.750000
vt 0.375000 0.265625
vt 0.625000 0.265625
vt 0.843750 0.500000
vt 0.843750 0.750000
vt 0.625000 0.968750
vt 0.375000 0.968750
vt 0.125000 0.500000
vt 0.125000 0.750000
s 1
f 1/1/1 2/2/2 4/3/3 3/4/4
f 31/5/5 29/6/6 8/7/7 7/8/8
f 7/8/8 8/7/7 6/9/9 5/10/10
f 36/11/11 34/12/12 2/13/2 1/14/1
f 31/15/5 7/8/8 5/10/10 30/16/11
f 35/17/13 4/18/3 2/19/2 34/20/12
f 39/21/14 10/22/15 12/23/16 38/24/17
f 43/25/5 9/26/5 11/27/11 42/28/11
f 40/29/11 38/30/17 12/31/16 11/32/11
f 43/33/5 41/34/18 10/35/15 9/36/5
f 25/37/5 27/38/19 15/39/20 13/40/5
f 25/41/5 13/42/5 16/43/11 28/44/11
f 41/45/18 15/46/20 14/47/21 44/48/22
f 42/49/11 44/50/22 14/51/21 16/52/11
f 22/53/11 24/54/23 20/55/24 18/56/11
f 21/57/25 17/58/26 20/59/24 24/60/23
f 37/61/5 19/62/5 18/63/11 40/64/11
f 37/65/5 39/66/14 17/67/26 19/68/5
f 29/69/6 21/57/25 24/60/23 32/70/27
f 30/71/11 32/72/27 24/54/23 22/53/11
f 19/62/5 23/73/5 22/74/11 18/63/11
f 19/68/5 17/67/26 21/75/25 23/76/5
f 33/77/5 25/41/5 28/44/11 36/78/11
f 33/79/5 35/80/13 27/38/19 25/37/5
f 15/46/20 27/81/19 26/82/28 14/47/21
f 16/52/11 14/51/21 26/83/28 28/84/11
f 5/10/10 6/9/9 32/72/27 30/71/11
f 8/7/7 29/69/6 32/70/27 6/9/9
f 23/73/5 31/15/5 30/16/11 22/74/11
f 23/76/5 21/75/25 29/6/6 31/5/5
f 3/4/4 4/3/3 35/80/13 33/79/5
f 3/85/4 33/77/5 36/78/11 1/86/1
f 27/81/19 35/17/13 34/20/12 26/82/28
f 28/84/11 26/83/28 34/12/12 36/11/11
f 9/36/5 10/35/15 39/66/14 37/65/5
f 9/26/5 37/61/5 40/64/11 11/27/11
f 18/56/11 20/55/24 38/30/17 40/29/11
f 17/58/26 39/21/14 38/24/17 20/59/24
f 11/32/11 12/31/16 44/50/22 42/49/11
f 10/22/15 41/45/18 44/48/22 12/23/16
f 13/40/5 15/39/20 41/34/18 43/33/5
f 13/42/5 43/25/5 42/28/11 16/43/11
